<svg width="166" height="65" viewBox="0 0 166 65" fill="none" xmlns="http://www.w3.org/2000/svg">
<path d="M0 5C0 2.23858 2.23858 0 5 0H161C163.761 0 166 2.23858 166 5V60C166 62.7614 163.761 65 161 65H5C2.23858 65 0 62.7614 0 60V5Z" fill="#FEECEC"/>
<path d="M18.2129 23.9727C18.8053 24.0404 19.3047 24.0911 19.7109 24.125C20.1172 24.1419 20.4388 24.1589 20.6758 24.1758C20.9635 24.1927 21.1921 24.2012 21.3613 24.2012C21.6491 24.2012 21.9792 24.1927 22.3516 24.1758C22.6732 24.1589 23.0456 24.1335 23.4688 24.0996C23.9089 24.0488 24.3828 23.9727 24.8906 23.8711C24.6536 24.125 24.459 24.3704 24.3066 24.6074C24.1543 24.8275 24.0358 25.0306 23.9512 25.2168C23.8496 25.4199 23.765 25.6061 23.6973 25.7754C23.6296 25.9954 23.5534 26.334 23.4688 26.791C23.3841 27.1803 23.291 27.7305 23.1895 28.4414C23.1048 29.1523 22.9948 30.0833 22.8594 31.2344C23.4349 31.2513 23.9342 31.2598 24.3574 31.2598C24.7806 31.2428 25.1361 31.2344 25.4238 31.2344H26.2617C26.4987 31.2174 26.7695 31.2005 27.0742 31.1836C27.582 31.1667 28.3522 31.1159 29.3848 31.0312C29.4694 30.2526 29.5117 29.584 29.5117 29.0254C29.5286 28.4499 29.5202 27.9674 29.4863 27.5781C29.4525 27.138 29.4017 26.7656 29.334 26.4609C29.2832 26.2917 29.207 26.0885 29.1055 25.8516C29.0208 25.6484 28.9023 25.403 28.75 25.1152C28.6146 24.8105 28.4284 24.4466 28.1914 24.0234C28.6315 24.0911 29.0208 24.1419 29.3594 24.1758C29.7148 24.1927 30.0111 24.2096 30.248 24.2266C30.5189 24.2435 30.7474 24.252 30.9336 24.252C31.1198 24.252 31.3652 24.2435 31.6699 24.2266C31.9238 24.2096 32.237 24.2012 32.6094 24.2012C32.9818 24.1842 33.4388 24.1589 33.9805 24.125C33.8451 24.362 33.7266 24.6074 33.625 24.8613C33.5234 25.1152 33.4388 25.3438 33.3711 25.5469C33.3034 25.7839 33.2357 26.0208 33.168 26.2578C33.0833 26.6133 33.0072 27.1296 32.9395 27.8066C32.8887 28.4837 32.8379 29.237 32.7871 30.0664C32.7533 30.8958 32.7194 31.7591 32.6855 32.6562C32.6686 33.5534 32.6517 34.3997 32.6348 35.1953C32.6348 35.9909 32.6432 36.7018 32.6602 37.3281C32.6771 37.9375 32.7109 38.3691 32.7617 38.623C32.8125 38.9277 32.8971 39.2409 33.0156 39.5625C33.1172 39.8503 33.2526 40.1634 33.4219 40.502C33.5911 40.8236 33.8112 41.1283 34.082 41.416L27.9629 41.873C28.2168 41.6361 28.4199 41.4076 28.5723 41.1875C28.7246 40.9505 28.8431 40.7474 28.9277 40.5781C29.0124 40.3919 29.0716 40.2142 29.1055 40.0449C29.1224 39.8418 29.1478 39.4863 29.1816 38.9785C29.2155 38.5553 29.2493 37.9544 29.2832 37.1758C29.3171 36.3971 29.3509 35.3646 29.3848 34.0781C29.1478 34.0781 28.86 34.0866 28.5215 34.1035C28.1999 34.1035 27.8952 34.112 27.6074 34.1289C27.2689 34.1458 26.9134 34.1543 26.541 34.1543C26.1686 34.1712 25.7793 34.1882 25.373 34.2051C25.0345 34.2389 24.6536 34.2728 24.2305 34.3066C23.8242 34.3236 23.418 34.349 23.0117 34.3828C22.9779 35.0938 22.9779 35.7201 23.0117 36.2617C23.0456 36.7865 23.0964 37.235 23.1641 37.6074C23.2318 38.0475 23.3164 38.4284 23.418 38.75C23.5195 39.0547 23.6296 39.3594 23.748 39.6641C23.8496 39.9349 23.9681 40.2227 24.1035 40.5273C24.2559 40.832 24.4082 41.1029 24.5605 41.3398C24.2389 41.306 23.9427 41.2806 23.6719 41.2637C23.401 41.2298 23.1641 41.196 22.9609 41.1621C22.724 41.1452 22.4954 41.1283 22.2754 41.1113C22.0553 41.1113 21.793 41.1029 21.4883 41.0859C21.2174 41.069 20.8789 41.0605 20.4727 41.0605C20.0664 41.0436 19.5924 41.0352 19.0508 41.0352C19.3724 40.7135 19.6263 40.4004 19.8125 40.0957C20.0156 39.7741 20.1595 39.4863 20.2441 39.2324C20.3457 38.9277 20.4134 38.6484 20.4473 38.3945C20.4642 38.1745 20.4727 37.7598 20.4727 37.1504C20.4896 36.541 20.4896 35.847 20.4727 35.0684C20.4727 34.2728 20.4642 33.4434 20.4473 32.5801C20.4303 31.6999 20.4049 30.8789 20.3711 30.1172C20.3542 29.3555 20.3288 28.7038 20.2949 28.1621C20.278 27.6035 20.2611 27.2565 20.2441 27.1211C20.1595 26.8164 20.0326 26.4863 19.8633 26.1309C19.7109 25.8431 19.5078 25.513 19.2539 25.1406C19 24.7513 18.653 24.362 18.2129 23.9727ZM41.5215 30.625C41.9616 30.625 42.4186 30.7096 42.8926 30.8789C43.3665 31.0312 43.8236 31.2344 44.2637 31.4883C44.7038 31.7253 45.1016 31.9876 45.457 32.2754C45.8294 32.5462 46.1341 32.8086 46.3711 33.0625C46.7943 33.5195 47.082 34.1374 47.2344 34.916C47.4036 35.6777 47.4375 36.4648 47.3359 37.2773C47.2344 38.0729 46.9974 38.8262 46.625 39.5371C46.2526 40.248 45.7363 40.7728 45.0762 41.1113C44.6022 41.3483 44.1367 41.5345 43.6797 41.6699C43.2227 41.8053 42.7826 41.9069 42.3594 41.9746C41.9362 42.0423 41.5384 42.0762 41.166 42.0762C40.7936 42.0762 40.472 42.0677 40.2012 42.0508C39.6934 42.0169 39.1602 41.8392 38.6016 41.5176C38.0599 41.196 37.5436 40.7982 37.0527 40.3242C36.5788 39.8503 36.1725 39.334 35.834 38.7754C35.4954 38.1999 35.2923 37.6582 35.2246 37.1504C35.123 36.4564 35.1061 35.7285 35.1738 34.9668C35.2415 34.2051 35.487 33.5026 35.9102 32.8594C36.3503 32.2161 37.0104 31.6829 37.8906 31.2598C38.7878 30.8366 39.998 30.625 41.5215 30.625ZM40.6836 40.4766C40.8698 40.5104 41.1237 40.4681 41.4453 40.3496C41.7669 40.2142 42.0801 40.0026 42.3848 39.7148C42.7064 39.4271 42.9857 39.0632 43.2227 38.623C43.4766 38.166 43.6289 37.6159 43.6797 36.9727C43.7305 36.3464 43.7305 35.7708 43.6797 35.2461C43.6458 34.7214 43.5697 34.2643 43.4512 33.875C43.3327 33.4688 43.1973 33.1387 43.0449 32.8848C42.8926 32.6309 42.7318 32.4531 42.5625 32.3516C42.2747 32.1992 41.9277 32.0807 41.5215 31.9961C41.1152 31.8945 40.7682 31.9115 40.4805 32.0469C40.3451 32.1146 40.1758 32.2585 39.9727 32.4785C39.7695 32.6986 39.5664 32.9779 39.3633 33.3164C39.1602 33.638 38.974 34.0104 38.8047 34.4336C38.6523 34.8568 38.5423 35.2969 38.4746 35.7539C38.4069 36.2109 38.39 36.7018 38.4238 37.2266C38.4746 37.7513 38.5846 38.2507 38.7539 38.7246C38.9232 39.1816 39.1602 39.5794 39.4648 39.918C39.7865 40.2396 40.1927 40.4258 40.6836 40.4766ZM48.4277 29.9648C48.8171 29.931 49.1471 29.8971 49.418 29.8633C49.7057 29.8294 49.9427 29.7956 50.1289 29.7617C50.349 29.7279 50.5352 29.694 50.6875 29.6602C50.8398 29.6432 51.0091 29.6094 51.1953 29.5586C51.3646 29.5247 51.5508 29.4824 51.7539 29.4316C51.974 29.3639 52.2109 29.2878 52.4648 29.2031L52.3125 32.4277C52.6849 31.8353 53.1165 31.3867 53.6074 31.082C54.0983 30.7604 54.5638 30.5234 55.0039 30.3711C55.5286 30.1849 56.0534 30.0749 56.5781 30.041C57.1198 30.0579 57.6191 30.1426 58.0762 30.2949C58.4655 30.4303 58.8548 30.6419 59.2441 30.9297C59.6504 31.2174 59.9635 31.6406 60.1836 32.1992C60.7591 31.6068 61.3262 31.1497 61.8848 30.8281C62.4603 30.4896 62.9681 30.2357 63.4082 30.0664C63.9329 29.8802 64.4238 29.7702 64.8809 29.7363C65.4902 29.7194 66.0488 29.821 66.5566 30.041C67.0814 30.2611 67.5384 30.5404 67.9277 30.8789C68.3171 31.2005 68.6302 31.5475 68.8672 31.9199C69.1042 32.2754 69.2396 32.5885 69.2734 32.8594C69.3242 33.2318 69.2988 33.7142 69.1973 34.3066C69.0957 34.8822 68.9772 35.4746 68.8418 36.084C68.7064 36.6764 68.5794 37.2266 68.4609 37.7344C68.3594 38.2253 68.3171 38.5723 68.334 38.7754C68.3848 38.9447 68.5033 39.1478 68.6895 39.3848C68.8587 39.5879 69.1042 39.8418 69.4258 40.1465C69.7643 40.4342 70.2467 40.7728 70.873 41.1621C70.3314 41.1452 69.849 41.1283 69.4258 41.1113C69.0195 41.0944 68.6725 41.069 68.3848 41.0352C68.0462 41.0013 67.75 40.9759 67.4961 40.959C67.293 40.959 67.0475 40.9421 66.7598 40.9082C66.5228 40.8913 66.2096 40.8659 65.8203 40.832C65.4479 40.7982 65.0163 40.7643 64.5254 40.7305C64.7116 40.6797 64.8639 40.5866 64.9824 40.4512C65.1009 40.2988 65.2025 40.1549 65.2871 40.0195C65.3717 39.8503 65.4395 39.6641 65.4902 39.4609C65.5241 39.2917 65.5579 39.0208 65.5918 38.6484C65.6257 38.276 65.651 37.8529 65.668 37.3789C65.7018 36.9049 65.7188 36.4056 65.7188 35.8809C65.7357 35.3561 65.7357 34.8568 65.7188 34.3828C65.7018 33.9089 65.668 33.4772 65.6172 33.0879C65.5664 32.6986 65.4987 32.4023 65.4141 32.1992C65.3464 32.0469 65.2279 31.9284 65.0586 31.8438C64.8893 31.7422 64.6947 31.6829 64.4746 31.666C64.2546 31.6322 64.0345 31.6406 63.8145 31.6914C63.5944 31.7253 63.3997 31.793 63.2305 31.8945C63.0781 32.013 62.875 32.1738 62.6211 32.377C62.401 32.5632 62.1133 32.8171 61.7578 33.1387C61.4023 33.4603 60.9538 33.8665 60.4121 34.3574C60.3613 35.4238 60.319 36.2871 60.2852 36.9473C60.2682 37.5905 60.2513 38.0814 60.2344 38.4199C60.2174 38.8262 60.209 39.1055 60.209 39.2578C60.1921 39.3932 60.2005 39.5202 60.2344 39.6387C60.2682 39.8926 60.3698 40.1296 60.5391 40.3496C60.3359 40.2988 60.1159 40.265 59.8789 40.248C59.6589 40.2311 59.4557 40.2142 59.2695 40.1973C59.0495 40.1803 58.8294 40.1719 58.6094 40.1719C58.4232 40.1719 58.2201 40.1803 58 40.1973C57.8138 40.2142 57.5853 40.2396 57.3145 40.2734C57.0436 40.2904 56.7474 40.3158 56.4258 40.3496C56.5612 40.265 56.6712 40.1634 56.7559 40.0449C56.8405 39.9264 56.9082 39.8164 56.959 39.7148C57.0267 39.5964 57.0775 39.4863 57.1113 39.3848C57.1283 39.2832 57.1621 39.0378 57.2129 38.6484C57.2637 38.2422 57.2975 37.7682 57.3145 37.2266C57.3314 36.6849 57.3314 36.1178 57.3145 35.5254C57.2975 34.916 57.2383 34.3659 57.1367 33.875C57.0352 33.3672 56.8743 32.9525 56.6543 32.6309C56.4512 32.3092 56.1803 32.1654 55.8418 32.1992C55.4355 32.2331 55.0208 32.3346 54.5977 32.5039C54.2422 32.6393 53.8613 32.8424 53.4551 33.1133C53.0488 33.3841 52.668 33.748 52.3125 34.2051C52.2448 35.4746 52.2025 36.4818 52.1855 37.2266C52.1855 37.9714 52.194 38.5384 52.2109 38.9277C52.2279 39.3848 52.2448 39.6979 52.2617 39.8672C52.2786 39.9857 52.321 40.1042 52.3887 40.2227C52.4395 40.3242 52.4987 40.4427 52.5664 40.5781C52.651 40.7135 52.7441 40.8405 52.8457 40.959L48.8086 40.7559C48.944 40.6882 49.0625 40.6035 49.1641 40.502C49.2656 40.3835 49.3503 40.265 49.418 40.1465C49.4857 40.0111 49.5534 39.8757 49.6211 39.7402C49.6719 39.6217 49.7142 39.3424 49.748 38.9023C49.7988 38.4622 49.8411 37.946 49.875 37.3535C49.9089 36.7441 49.9342 36.1094 49.9512 35.4492C49.985 34.7721 50.002 34.1458 50.002 33.5703C50.0189 32.9779 50.0273 32.4785 50.0273 32.0723C50.0273 31.6491 50.0189 31.3952 50.002 31.3105C49.9512 31.1413 49.8581 30.9635 49.7227 30.7773C49.6042 30.6419 49.4434 30.498 49.2402 30.3457C49.0371 30.1764 48.7663 30.0495 48.4277 29.9648ZM77.6016 37.9121C78.0755 37.9121 78.5156 37.8613 78.9219 37.7598C79.2604 37.6751 79.582 37.5397 79.8867 37.3535C80.2083 37.1504 80.4199 36.8542 80.5215 36.4648C80.86 36.5326 81.1478 36.5918 81.3848 36.6426C81.6217 36.6764 81.8249 36.7103 81.9941 36.7441C82.1803 36.7949 82.3411 36.8288 82.4766 36.8457C82.612 36.8796 82.7728 36.9134 82.959 36.9473C83.1283 36.9811 83.3314 37.0234 83.5684 37.0742C83.8223 37.1081 84.1185 37.1589 84.457 37.2266C84.2031 37.1927 83.9408 37.2181 83.6699 37.3027C83.416 37.3874 83.1706 37.4805 82.9336 37.582C82.6628 37.7005 82.4089 37.8444 82.1719 38.0137C82.0195 38.1152 81.8418 38.2676 81.6387 38.4707C81.4525 38.6738 81.1816 38.8685 80.8262 39.0547C80.4707 39.2409 79.9967 39.4017 79.4043 39.5371C78.8288 39.6556 78.084 39.6979 77.1699 39.6641C76.0697 39.6302 75.1471 39.4355 74.4023 39.0801C73.6576 38.7077 73.0566 38.2591 72.5996 37.7344C72.1426 37.1927 71.8125 36.6087 71.6094 35.9824C71.4062 35.3561 71.2962 34.7721 71.2793 34.2305C71.2624 33.6888 71.4232 33.1217 71.7617 32.5293C72.1003 31.9368 72.5742 31.3952 73.1836 30.9043C73.8099 30.4134 74.5632 30.0156 75.4434 29.7109C76.3236 29.3893 77.2884 29.2285 78.3379 29.2285C78.9473 29.2285 79.5059 29.3047 80.0137 29.457C80.5384 29.5924 81.0124 29.7786 81.4355 30.0156C81.8757 30.2526 82.2565 30.5234 82.5781 30.8281C82.8997 31.1159 83.1706 31.4121 83.3906 31.7168C83.6107 32.0384 83.7969 32.377 83.9492 32.7324C84.0846 33.0371 84.1947 33.3841 84.2793 33.7734C84.3639 34.1628 84.3893 34.5605 84.3555 34.9668C83.069 35.0007 82.028 35.026 81.2324 35.043C80.4538 35.0599 79.8444 35.0684 79.4043 35.0684H78.2617H77.3984C77.0938 35.0684 76.696 35.0768 76.2051 35.0938C75.7142 35.1107 75.1133 35.1361 74.4023 35.1699C74.487 35.847 74.6986 36.3717 75.0371 36.7441C75.3926 37.0996 75.765 37.3704 76.1543 37.5566C76.5944 37.7598 77.0768 37.8783 77.6016 37.9121ZM75.3164 33.3418C75.8581 33.3757 76.3066 33.401 76.6621 33.418C77.0345 33.4349 77.3392 33.4518 77.5762 33.4688C77.8301 33.4857 78.0332 33.4941 78.1855 33.4941H78.8203C79.2435 33.4941 80.0306 33.4688 81.1816 33.418C81.1309 32.6732 80.9701 32.1061 80.6992 31.7168C80.4453 31.3275 80.1745 31.0397 79.8867 30.8535C79.5482 30.6504 79.1758 30.5319 78.7695 30.498C77.6693 30.515 76.8483 30.7435 76.3066 31.1836C75.7819 31.6237 75.4518 32.3431 75.3164 33.3418ZM85.498 24.4805C86.5137 24.5651 87.4023 24.6159 88.1641 24.6328C88.9427 24.6497 89.6029 24.6582 90.1445 24.6582C90.7708 24.6582 91.3125 24.6413 91.7695 24.6074C92.2435 24.5566 92.8613 24.4889 93.623 24.4043C94.2663 24.3197 95.0957 24.2096 96.1113 24.0742C97.127 23.9219 98.3626 23.7272 99.8184 23.4902C99.6322 23.778 99.4714 24.0827 99.3359 24.4043C99.2174 24.709 99.1159 24.9883 99.0312 25.2422C98.9466 25.5469 98.8704 25.8431 98.8027 26.1309C98.752 26.4525 98.6927 26.8503 98.625 27.3242C98.5573 27.7305 98.4727 28.2467 98.3711 28.873C98.2865 29.4824 98.1764 30.2103 98.041 31.0566C97.5332 29.7363 97.0169 28.7207 96.4922 28.0098C95.9844 27.2988 95.5104 26.7741 95.0703 26.4355C94.5625 26.0462 94.0801 25.8262 93.623 25.7754C92.9629 25.7754 92.4212 25.9023 91.998 26.1562C91.5749 26.4102 91.2279 26.7402 90.957 27.1465C90.7031 27.5358 90.5085 27.9674 90.373 28.4414C90.2376 28.8984 90.1445 29.347 90.0938 29.7871C90.043 30.2103 90.0091 30.5911 89.9922 30.9297C89.9753 31.2513 89.9583 31.4714 89.9414 31.5898C90.5339 31.556 91.0332 31.5137 91.4395 31.4629C91.8457 31.4121 92.1673 31.3613 92.4043 31.3105C92.6921 31.2428 92.9206 31.1751 93.0898 31.1074C93.3438 30.972 93.5977 30.8112 93.8516 30.625C94.0716 30.4557 94.3001 30.2526 94.5371 30.0156C94.791 29.7786 95.0111 29.4909 95.1973 29.1523C95.0957 29.7617 95.0026 30.2695 94.918 30.6758C94.8503 31.082 94.791 31.4036 94.7402 31.6406C94.6725 31.9284 94.6302 32.1484 94.6133 32.3008C94.5794 32.4531 94.5371 32.6647 94.4863 32.9355C94.4355 33.1725 94.3763 33.4772 94.3086 33.8496C94.2409 34.222 94.1647 34.6875 94.0801 35.2461C93.877 34.8906 93.6654 34.6029 93.4453 34.3828C93.2253 34.1458 93.0221 33.9596 92.8359 33.8242C92.6159 33.6719 92.4043 33.5534 92.2012 33.4688C91.9811 33.401 91.7441 33.3333 91.4902 33.2656C91.2702 33.2148 91.0078 33.1641 90.7031 33.1133C90.4154 33.0456 90.1022 32.9863 89.7637 32.9355C89.7975 33.8496 89.8483 34.6367 89.916 35.2969C89.9837 35.9401 90.043 36.4818 90.0938 36.9219C90.1615 37.4297 90.2292 37.8529 90.2969 38.1914C90.3815 38.5299 90.5169 38.8939 90.7031 39.2832C90.8555 39.6217 91.0671 40.0111 91.3379 40.4512C91.6257 40.8743 91.9896 41.3314 92.4297 41.8223C92.0911 41.7376 91.7357 41.6784 91.3633 41.6445C90.9909 41.6107 90.6608 41.5853 90.373 41.5684C90.0176 41.5514 89.679 41.5514 89.3574 41.5684C89.0189 41.5853 88.6465 41.6191 88.2402 41.6699C87.9017 41.7038 87.5124 41.7546 87.0723 41.8223C86.6322 41.89 86.1667 41.9661 85.6758 42.0508C85.9635 41.763 86.2005 41.4753 86.3867 41.1875C86.5729 40.8997 86.7083 40.6458 86.793 40.4258C86.8945 40.1719 86.9622 39.9264 86.9961 39.6895C87.013 39.4863 87.0215 39.0462 87.0215 38.3691C87.0215 37.6751 87.013 36.8711 86.9961 35.957C86.9792 35.026 86.9538 34.0443 86.9199 33.0117C86.8861 31.9792 86.8522 31.0143 86.8184 30.1172C86.7845 29.2031 86.7422 28.4245 86.6914 27.7812C86.6576 27.138 86.6152 26.7487 86.5645 26.6133C86.4967 26.444 86.4206 26.2493 86.3359 26.0293C86.2005 25.6738 85.9212 25.1576 85.498 24.4805ZM98.9043 30.3203C99.3444 30.4049 99.7253 30.4727 100.047 30.5234C100.385 30.5573 100.673 30.5911 100.91 30.625C101.181 30.6589 101.418 30.6842 101.621 30.7012C101.824 30.7181 102.061 30.735 102.332 30.752C102.789 30.7689 103.432 30.7689 104.262 30.752C103.771 30.7181 103.382 30.8451 103.094 31.1328C102.823 31.4036 102.62 31.7168 102.484 32.0723C102.315 32.4954 102.222 32.9863 102.205 33.5449C102.171 34.2897 102.188 34.9668 102.256 35.5762C102.34 36.1686 102.484 36.6764 102.688 37.0996C102.908 37.5059 103.195 37.8105 103.551 38.0137C103.906 38.1999 104.363 38.2507 104.922 38.166C105.48 38.0814 105.904 37.8867 106.191 37.582C106.496 37.2604 106.716 36.8711 106.852 36.4141C106.987 35.9401 107.063 35.4069 107.08 34.8145C107.114 34.222 107.139 33.6042 107.156 32.9609C107.156 32.3177 107.148 31.8607 107.131 31.5898C107.131 31.3021 107.122 31.1159 107.105 31.0312C107.089 30.9466 107.063 30.9128 107.029 30.9297C106.995 30.9297 106.953 30.8874 106.902 30.8027C106.868 30.735 106.818 30.6673 106.75 30.5996C106.699 30.5319 106.632 30.4557 106.547 30.3711C106.462 30.2695 106.369 30.168 106.268 30.0664C106.708 30.0833 107.097 30.1003 107.436 30.1172C107.791 30.1172 108.087 30.1257 108.324 30.1426C108.595 30.1595 108.832 30.1764 109.035 30.1934C109.221 30.2103 109.467 30.2357 109.771 30.2695C110.025 30.3034 110.355 30.3372 110.762 30.3711C111.168 30.4049 111.65 30.4557 112.209 30.5234C111.82 30.6081 111.507 30.735 111.27 30.9043C111.033 31.0736 110.846 31.2428 110.711 31.4121C110.559 31.5983 110.449 31.8014 110.381 32.0215C110.33 32.3092 110.33 32.7493 110.381 33.3418C110.415 33.8665 110.499 34.5859 110.635 35.5C110.77 36.4141 110.982 37.6159 111.27 39.1055L109.264 40.2988L108.857 36.9219C108.367 37.7513 107.842 38.3945 107.283 38.8516C106.742 39.2917 106.234 39.6133 105.76 39.8164C105.201 40.0534 104.66 40.1888 104.135 40.2227C103.441 40.2227 102.84 40.1803 102.332 40.0957C101.841 39.9941 101.418 39.8672 101.062 39.7148C100.707 39.5625 100.419 39.3932 100.199 39.207C99.9961 39.0039 99.8438 38.8008 99.7422 38.5977C99.5052 38.1745 99.3783 37.6328 99.3613 36.9727C99.3444 36.2956 99.3698 35.627 99.4375 34.9668C99.5052 34.2897 99.5814 33.6719 99.666 33.1133C99.7507 32.5547 99.776 32.1738 99.7422 31.9707C99.7083 31.8184 99.6576 31.6491 99.5898 31.4629C99.5221 31.3105 99.4375 31.1413 99.3359 30.9551C99.2344 30.752 99.0905 30.5404 98.9043 30.3203ZM112.336 29.8379C112.658 29.8548 112.945 29.8633 113.199 29.8633C113.47 29.8464 113.699 29.8294 113.885 29.8125C114.105 29.7956 114.299 29.7786 114.469 29.7617C114.723 29.7279 114.985 29.6855 115.256 29.6348C115.493 29.6009 115.738 29.5586 115.992 29.5078C116.263 29.4401 116.525 29.3639 116.779 29.2793C116.678 29.5332 116.593 29.7533 116.525 29.9395C116.458 30.1257 116.407 30.2865 116.373 30.4219C116.322 30.5742 116.297 30.7012 116.297 30.8027C116.28 30.9212 116.271 31.0651 116.271 31.2344C116.255 31.5221 116.255 31.9876 116.271 32.6309C117.152 31.8691 117.888 31.2767 118.48 30.8535C119.09 30.4303 119.572 30.1003 119.928 29.8633C120.351 29.5924 120.681 29.4147 120.918 29.3301C121.544 29.2285 122.094 29.3724 122.568 29.7617C122.771 29.931 122.966 30.1595 123.152 30.4473C123.339 30.7181 123.499 31.082 123.635 31.5391C123.77 31.9961 123.872 32.5462 123.939 33.1895C124.007 33.8158 124.016 34.569 123.965 35.4492C123.609 35.4831 123.288 35.5169 123 35.5508C122.729 35.5846 122.501 35.61 122.314 35.627C122.094 35.6608 121.891 35.6777 121.705 35.6777L121.02 35.7539C120.783 35.7878 120.486 35.8216 120.131 35.8555C119.792 35.8724 119.378 35.9062 118.887 35.957C119.598 35.3815 120.055 34.8822 120.258 34.459C120.478 34.0189 120.571 33.6549 120.537 33.3672C120.503 33.0456 120.351 32.7663 120.08 32.5293C119.758 32.3431 119.411 32.2754 119.039 32.3262C118.717 32.36 118.345 32.5039 117.922 32.7578C117.499 33.0117 117.05 33.4857 116.576 34.1797C116.61 35.263 116.644 36.1602 116.678 36.8711C116.729 37.582 116.771 38.1576 116.805 38.5977C116.855 39.1055 116.898 39.5033 116.932 39.791C116.982 40.0449 117.084 40.3158 117.236 40.6035C117.355 40.8405 117.524 41.1029 117.744 41.3906C117.964 41.6784 118.252 41.9661 118.607 42.2539C117.863 42.2201 117.253 42.2201 116.779 42.2539C116.492 42.2708 116.238 42.2878 116.018 42.3047C115.781 42.3385 115.527 42.3724 115.256 42.4062C115.019 42.4401 114.74 42.474 114.418 42.5078C114.113 42.5586 113.775 42.6094 113.402 42.6602C113.538 42.474 113.648 42.2539 113.732 42C113.817 41.763 113.885 41.5345 113.936 41.3145C114.003 41.0605 114.054 40.7982 114.088 40.5273C114.105 40.2904 114.113 39.9349 114.113 39.4609C114.13 38.987 114.122 38.4538 114.088 37.8613C114.071 37.252 114.046 36.6257 114.012 35.9824C113.978 35.3223 113.936 34.7044 113.885 34.1289C113.834 33.5534 113.775 33.054 113.707 32.6309C113.656 32.1908 113.597 31.8861 113.529 31.7168C113.445 31.5137 113.343 31.3105 113.225 31.1074C113.123 30.9212 112.996 30.7266 112.844 30.5234C112.691 30.3034 112.522 30.0749 112.336 29.8379ZM125.818 39.207C125.937 38.6484 126.021 38.1576 126.072 37.7344C126.14 37.2943 126.191 36.9303 126.225 36.6426C126.258 36.304 126.275 36.0163 126.275 35.7793C126.258 35.4915 126.242 35.153 126.225 34.7637C126.225 34.3574 126.208 33.9596 126.174 33.5703C126.157 33.1641 126.132 32.8086 126.098 32.5039C126.064 32.1823 126.021 31.9538 125.971 31.8184C125.903 31.6829 125.81 31.5391 125.691 31.3867C125.454 31.099 125.107 30.8197 124.65 30.5488C125.04 30.4642 125.37 30.3965 125.641 30.3457C125.928 30.278 126.165 30.2188 126.352 30.168C126.555 30.1003 126.732 30.041 126.885 29.9902C127.02 29.9395 127.181 29.8887 127.367 29.8379C127.52 29.804 127.706 29.7617 127.926 29.7109C128.146 29.6602 128.4 29.6009 128.688 29.5332L128.611 31.8438C129.153 31.2005 129.703 30.7181 130.262 30.3965C130.82 30.0749 131.345 29.8464 131.836 29.7109C132.395 29.5417 132.945 29.457 133.486 29.457C134.163 29.4909 134.79 29.6009 135.365 29.7871C135.958 29.9733 136.465 30.1934 136.889 30.4473C137.329 30.6842 137.684 30.9382 137.955 31.209C138.226 31.4798 138.387 31.7168 138.438 31.9199C138.641 32.5801 138.691 33.1895 138.59 33.748C138.488 34.2897 138.353 34.8229 138.184 35.3477C138.031 35.8555 137.896 36.3633 137.777 36.8711C137.676 37.3789 137.718 37.929 137.904 38.5215C137.972 38.6738 138.04 38.8262 138.107 38.9785C138.175 39.1139 138.26 39.2493 138.361 39.3848C138.463 39.5202 138.581 39.6302 138.717 39.7148C138.531 39.6979 138.344 39.6895 138.158 39.6895C137.972 39.6725 137.803 39.6556 137.65 39.6387C137.464 39.6217 137.295 39.6048 137.143 39.5879C136.973 39.571 136.745 39.5625 136.457 39.5625C135.966 39.5625 135.204 39.5879 134.172 39.6387C134.324 39.2832 134.443 38.987 134.527 38.75C134.629 38.4961 134.714 38.293 134.781 38.1406C134.849 37.9544 134.9 37.8105 134.934 37.709C135.137 37.2181 135.255 36.6595 135.289 36.0332C135.34 35.4069 135.298 34.7721 135.162 34.1289C135.111 33.9089 135.027 33.6465 134.908 33.3418C134.79 33.0371 134.629 32.7409 134.426 32.4531C134.24 32.1654 134.011 31.9199 133.74 31.7168C133.486 31.5137 133.19 31.3952 132.852 31.3613C132.513 31.3275 132.132 31.4121 131.709 31.6152C131.303 31.8184 130.863 32.1908 130.389 32.7324C130.033 33.1895 129.754 33.748 129.551 34.4082C129.365 34.9668 129.238 35.6693 129.17 36.5156C129.102 37.3451 129.204 38.3184 129.475 39.4355C129.238 39.4017 129.018 39.3848 128.814 39.3848C128.611 39.3678 128.442 39.3509 128.307 39.334C128.137 39.3171 127.985 39.3001 127.85 39.2832C127.697 39.2832 127.528 39.2747 127.342 39.2578C127.173 39.2578 126.961 39.2578 126.707 39.2578C126.453 39.2409 126.157 39.224 125.818 39.207ZM140.266 30.6504L144.938 30.7012C144.667 31.7337 144.464 32.6139 144.328 33.3418C144.21 34.0697 144.133 34.679 144.1 35.1699C144.032 35.7285 144.015 36.2025 144.049 36.5918C144.1 36.9473 144.184 37.3281 144.303 37.7344C144.404 38.0729 144.557 38.4622 144.76 38.9023C144.963 39.3424 145.234 39.7826 145.572 40.2227C145.369 40.1549 145.149 40.1042 144.912 40.0703C144.675 40.0365 144.455 40.0111 144.252 39.9941C144.015 39.9772 143.778 39.9772 143.541 39.9941C143.304 40.0111 143.042 40.0365 142.754 40.0703C142.517 40.1042 142.229 40.1465 141.891 40.1973C141.552 40.248 141.197 40.3158 140.824 40.4004C141.078 39.6387 141.273 38.9785 141.408 38.4199C141.561 37.8613 141.671 37.3958 141.738 37.0234C141.806 36.5833 141.848 36.2279 141.865 35.957C141.865 35.6185 141.865 35.2376 141.865 34.8145C141.865 34.3743 141.865 33.9512 141.865 33.5449C141.865 33.1387 141.857 32.7832 141.84 32.4785C141.823 32.1569 141.789 31.9538 141.738 31.8691L141.484 31.6152C141.383 31.5306 141.23 31.4121 141.027 31.2598C140.841 31.0905 140.587 30.8874 140.266 30.6504ZM142.068 26.7402C142.424 26.554 142.779 26.5033 143.135 26.5879C143.507 26.6725 143.795 26.8333 143.998 27.0703C144.201 27.3073 144.269 27.5866 144.201 27.9082C144.15 28.2298 143.88 28.543 143.389 28.8477C142.898 29.1354 142.466 29.237 142.094 29.1523C141.721 29.0677 141.459 28.89 141.307 28.6191C141.154 28.3483 141.129 28.0352 141.23 27.6797C141.332 27.3073 141.611 26.9941 142.068 26.7402Z" fill="#F54E19"/>
</svg>
