<svg width="79" height="13" viewBox="0 0 79 13" fill="none" xmlns="http://www.w3.org/2000/svg">
<path d="M0.515625 0.90625C0.880208 0.947917 1.1875 0.979167 1.4375 1C1.6875 1.01042 1.88542 1.02083 2.03125 1.03125C2.20833 1.04167 2.34896 1.04688 2.45312 1.04688C2.63021 1.04688 2.83333 1.04167 3.0625 1.03125C3.26042 1.02083 3.48958 1.00521 3.75 0.984375C4.02083 0.953125 4.3125 0.90625 4.625 0.84375C4.47917 1 4.35938 1.15104 4.26562 1.29688C4.17188 1.43229 4.09896 1.55729 4.04688 1.67188C3.98438 1.79688 3.93229 1.91146 3.89062 2.01562C3.84896 2.15104 3.80208 2.35938 3.75 2.64062C3.69792 2.88021 3.64062 3.21875 3.57812 3.65625C3.52604 4.09375 3.45833 4.66667 3.375 5.375C3.72917 5.38542 4.03646 5.39062 4.29688 5.39062C4.55729 5.38021 4.77604 5.375 4.95312 5.375H5.46875C5.61458 5.36458 5.78125 5.35417 5.96875 5.34375C6.28125 5.33333 6.75521 5.30208 7.39062 5.25C7.44271 4.77083 7.46875 4.35938 7.46875 4.01562C7.47917 3.66146 7.47396 3.36458 7.45312 3.125C7.43229 2.85417 7.40104 2.625 7.35938 2.4375C7.32812 2.33333 7.28125 2.20833 7.21875 2.0625C7.16667 1.9375 7.09375 1.78646 7 1.60938C6.91667 1.42188 6.80208 1.19792 6.65625 0.9375C6.92708 0.979167 7.16667 1.01042 7.375 1.03125C7.59375 1.04167 7.77604 1.05208 7.92188 1.0625C8.08854 1.07292 8.22917 1.07812 8.34375 1.07812C8.45833 1.07812 8.60938 1.07292 8.79688 1.0625C8.95312 1.05208 9.14583 1.04688 9.375 1.04688C9.60417 1.03646 9.88542 1.02083 10.2188 1C10.1354 1.14583 10.0625 1.29688 10 1.45312C9.9375 1.60938 9.88542 1.75 9.84375 1.875C9.80208 2.02083 9.76042 2.16667 9.71875 2.3125C9.66667 2.53125 9.61979 2.84896 9.57812 3.26562C9.54688 3.68229 9.51562 4.14583 9.48438 4.65625C9.46354 5.16667 9.44271 5.69792 9.42188 6.25C9.41146 6.80208 9.40104 7.32292 9.39062 7.8125C9.39062 8.30208 9.39583 8.73958 9.40625 9.125C9.41667 9.5 9.4375 9.76562 9.46875 9.92188C9.5 10.1094 9.55208 10.3021 9.625 10.5C9.6875 10.6771 9.77083 10.8698 9.875 11.0781C9.97917 11.276 10.1146 11.4635 10.2812 11.6406L6.51562 11.9219C6.67188 11.776 6.79688 11.6354 6.89062 11.5C6.98438 11.3542 7.05729 11.2292 7.10938 11.125C7.16146 11.0104 7.19792 10.901 7.21875 10.7969C7.22917 10.6719 7.24479 10.4531 7.26562 10.1406C7.28646 9.88021 7.30729 9.51042 7.32812 9.03125C7.34896 8.55208 7.36979 7.91667 7.39062 7.125C7.24479 7.125 7.06771 7.13021 6.85938 7.14062C6.66146 7.14062 6.47396 7.14583 6.29688 7.15625C6.08854 7.16667 5.86979 7.17188 5.64062 7.17188C5.41146 7.18229 5.17188 7.19271 4.92188 7.20312C4.71354 7.22396 4.47917 7.24479 4.21875 7.26562C3.96875 7.27604 3.71875 7.29167 3.46875 7.3125C3.44792 7.75 3.44792 8.13542 3.46875 8.46875C3.48958 8.79167 3.52083 9.06771 3.5625 9.29688C3.60417 9.56771 3.65625 9.80208 3.71875 10C3.78125 10.1875 3.84896 10.375 3.92188 10.5625C3.98438 10.7292 4.05729 10.9062 4.14062 11.0938C4.23438 11.2812 4.32812 11.4479 4.42188 11.5938C4.22396 11.5729 4.04167 11.5573 3.875 11.5469C3.70833 11.526 3.5625 11.5052 3.4375 11.4844C3.29167 11.474 3.15104 11.4635 3.01562 11.4531C2.88021 11.4531 2.71875 11.4479 2.53125 11.4375C2.36458 11.4271 2.15625 11.4219 1.90625 11.4219C1.65625 11.4115 1.36458 11.4062 1.03125 11.4062C1.22917 11.2083 1.38542 11.0156 1.5 10.8281C1.625 10.6302 1.71354 10.4531 1.76562 10.2969C1.82812 10.1094 1.86979 9.9375 1.89062 9.78125C1.90104 9.64583 1.90625 9.39062 1.90625 9.01562C1.91667 8.64062 1.91667 8.21354 1.90625 7.73438C1.90625 7.24479 1.90104 6.73438 1.89062 6.20312C1.88021 5.66146 1.86458 5.15625 1.84375 4.6875C1.83333 4.21875 1.81771 3.81771 1.79688 3.48438C1.78646 3.14062 1.77604 2.92708 1.76562 2.84375C1.71354 2.65625 1.63542 2.45312 1.53125 2.23438C1.4375 2.05729 1.3125 1.85417 1.15625 1.625C1 1.38542 0.786458 1.14583 0.515625 0.90625ZM14.8594 5C15.1302 5 15.4115 5.05208 15.7031 5.15625C15.9948 5.25 16.276 5.375 16.5469 5.53125C16.8177 5.67708 17.0625 5.83854 17.2812 6.01562C17.5104 6.18229 17.6979 6.34375 17.8438 6.5C18.1042 6.78125 18.2812 7.16146 18.375 7.64062C18.4792 8.10938 18.5 8.59375 18.4375 9.09375C18.375 9.58333 18.2292 10.0469 18 10.4844C17.7708 10.9219 17.4531 11.2448 17.0469 11.4531C16.7552 11.599 16.4688 11.7135 16.1875 11.7969C15.9062 11.8802 15.6354 11.9427 15.375 11.9844C15.1146 12.026 14.8698 12.0469 14.6406 12.0469C14.4115 12.0469 14.2135 12.0417 14.0469 12.0312C13.7344 12.0104 13.4062 11.901 13.0625 11.7031C12.7292 11.5052 12.4115 11.2604 12.1094 10.9688C11.8177 10.6771 11.5677 10.3594 11.3594 10.0156C11.151 9.66146 11.026 9.32812 10.9844 9.01562C10.9219 8.58854 10.9115 8.14062 10.9531 7.67188C10.9948 7.20312 11.1458 6.77083 11.4062 6.375C11.6771 5.97917 12.0833 5.65104 12.625 5.39062C13.1771 5.13021 13.9219 5 14.8594 5ZM14.3438 11.0625C14.4583 11.0833 14.6146 11.0573 14.8125 10.9844C15.0104 10.901 15.2031 10.7708 15.3906 10.5938C15.5885 10.4167 15.7604 10.1927 15.9062 9.92188C16.0625 9.64062 16.1562 9.30208 16.1875 8.90625C16.2188 8.52083 16.2188 8.16667 16.1875 7.84375C16.1667 7.52083 16.1198 7.23958 16.0469 7C15.974 6.75 15.8906 6.54688 15.7969 6.39062C15.7031 6.23438 15.6042 6.125 15.5 6.0625C15.3229 5.96875 15.1094 5.89583 14.8594 5.84375C14.6094 5.78125 14.3958 5.79167 14.2188 5.875C14.1354 5.91667 14.0312 6.00521 13.9062 6.14062C13.7812 6.27604 13.6562 6.44792 13.5312 6.65625C13.4062 6.85417 13.2917 7.08333 13.1875 7.34375C13.0938 7.60417 13.026 7.875 12.9844 8.15625C12.9427 8.4375 12.9323 8.73958 12.9531 9.0625C12.9844 9.38542 13.0521 9.69271 13.1562 9.98438C13.2604 10.2656 13.4062 10.5104 13.5938 10.7188C13.7917 10.9167 14.0417 11.0312 14.3438 11.0625ZM19.1094 4.59375C19.349 4.57292 19.5521 4.55208 19.7188 4.53125C19.8958 4.51042 20.0417 4.48958 20.1562 4.46875C20.2917 4.44792 20.4062 4.42708 20.5 4.40625C20.5938 4.39583 20.6979 4.375 20.8125 4.34375C20.9167 4.32292 21.0312 4.29688 21.1562 4.26562C21.2917 4.22396 21.4375 4.17708 21.5938 4.125L21.5 6.10938C21.7292 5.74479 21.9948 5.46875 22.2969 5.28125C22.599 5.08333 22.8854 4.9375 23.1562 4.84375C23.4792 4.72917 23.8021 4.66146 24.125 4.64062C24.4583 4.65104 24.7656 4.70312 25.0469 4.79688C25.2865 4.88021 25.526 5.01042 25.7656 5.1875C26.0156 5.36458 26.2083 5.625 26.3438 5.96875C26.6979 5.60417 27.0469 5.32292 27.3906 5.125C27.7448 4.91667 28.0573 4.76042 28.3281 4.65625C28.651 4.54167 28.9531 4.47396 29.2344 4.45312C29.6094 4.44271 29.9531 4.50521 30.2656 4.64062C30.5885 4.77604 30.8698 4.94792 31.1094 5.15625C31.349 5.35417 31.5417 5.56771 31.6875 5.79688C31.8333 6.01562 31.9167 6.20833 31.9375 6.375C31.9688 6.60417 31.9531 6.90104 31.8906 7.26562C31.8281 7.61979 31.7552 7.98438 31.6719 8.35938C31.5885 8.72396 31.5104 9.0625 31.4375 9.375C31.375 9.67708 31.349 9.89062 31.3594 10.0156C31.3906 10.1198 31.4635 10.2448 31.5781 10.3906C31.6823 10.5156 31.8333 10.6719 32.0312 10.8594C32.2396 11.0365 32.5365 11.2448 32.9219 11.4844C32.5885 11.474 32.2917 11.4635 32.0312 11.4531C31.7812 11.4427 31.5677 11.4271 31.3906 11.4062C31.1823 11.3854 31 11.3698 30.8438 11.3594C30.7188 11.3594 30.5677 11.349 30.3906 11.3281C30.2448 11.3177 30.0521 11.3021 29.8125 11.2812C29.5833 11.2604 29.3177 11.2396 29.0156 11.2188C29.1302 11.1875 29.224 11.1302 29.2969 11.0469C29.3698 10.9531 29.4323 10.8646 29.4844 10.7812C29.5365 10.6771 29.5781 10.5625 29.6094 10.4375C29.6302 10.3333 29.651 10.1667 29.6719 9.9375C29.6927 9.70833 29.7083 9.44792 29.7188 9.15625C29.7396 8.86458 29.75 8.55729 29.75 8.23438C29.7604 7.91146 29.7604 7.60417 29.75 7.3125C29.7396 7.02083 29.7188 6.75521 29.6875 6.51562C29.6562 6.27604 29.6146 6.09375 29.5625 5.96875C29.5208 5.875 29.4479 5.80208 29.3438 5.75C29.2396 5.6875 29.1198 5.65104 28.9844 5.64062C28.849 5.61979 28.7135 5.625 28.5781 5.65625C28.4427 5.67708 28.3229 5.71875 28.2188 5.78125C28.125 5.85417 28 5.95312 27.8438 6.07812C27.7083 6.19271 27.5312 6.34896 27.3125 6.54688C27.0938 6.74479 26.8177 6.99479 26.4844 7.29688C26.4531 7.95312 26.4271 8.48438 26.4062 8.89062C26.3958 9.28646 26.3854 9.58854 26.375 9.79688C26.3646 10.0469 26.3594 10.2188 26.3594 10.3125C26.349 10.3958 26.3542 10.474 26.375 10.5469C26.3958 10.7031 26.4583 10.849 26.5625 10.9844C26.4375 10.9531 26.3021 10.9323 26.1562 10.9219C26.0208 10.9115 25.8958 10.901 25.7812 10.8906C25.6458 10.8802 25.5104 10.875 25.375 10.875C25.2604 10.875 25.1354 10.8802 25 10.8906C24.8854 10.901 24.7448 10.9167 24.5781 10.9375C24.4115 10.9479 24.2292 10.9635 24.0312 10.9844C24.1146 10.9323 24.1823 10.8698 24.2344 10.7969C24.2865 10.724 24.3281 10.6562 24.3594 10.5938C24.401 10.5208 24.4323 10.4531 24.4531 10.3906C24.4635 10.3281 24.4844 10.1771 24.5156 9.9375C24.5469 9.6875 24.5677 9.39583 24.5781 9.0625C24.5885 8.72917 24.5885 8.38021 24.5781 8.01562C24.5677 7.64062 24.5312 7.30208 24.4688 7C24.4062 6.6875 24.3073 6.43229 24.1719 6.23438C24.0469 6.03646 23.8802 5.94792 23.6719 5.96875C23.4219 5.98958 23.1667 6.05208 22.9062 6.15625C22.6875 6.23958 22.4531 6.36458 22.2031 6.53125C21.9531 6.69792 21.7188 6.92188 21.5 7.20312C21.4583 7.98438 21.4323 8.60417 21.4219 9.0625C21.4219 9.52083 21.4271 9.86979 21.4375 10.1094C21.4479 10.3906 21.4583 10.5833 21.4688 10.6875C21.4792 10.7604 21.5052 10.8333 21.5469 10.9062C21.5781 10.9688 21.6146 11.0417 21.6562 11.125C21.7083 11.2083 21.7656 11.2865 21.8281 11.3594L19.3438 11.2344C19.4271 11.1927 19.5 11.1406 19.5625 11.0781C19.625 11.0052 19.6771 10.9323 19.7188 10.8594C19.7604 10.776 19.8021 10.6927 19.8438 10.6094C19.875 10.5365 19.901 10.3646 19.9219 10.0938C19.9531 9.82292 19.9792 9.50521 20 9.14062C20.0208 8.76562 20.0365 8.375 20.0469 7.96875C20.0677 7.55208 20.0781 7.16667 20.0781 6.8125C20.0885 6.44792 20.0938 6.14062 20.0938 5.89062C20.0938 5.63021 20.0885 5.47396 20.0781 5.42188C20.0469 5.31771 19.9896 5.20833 19.9062 5.09375C19.8333 5.01042 19.7344 4.92188 19.6094 4.82812C19.4844 4.72396 19.3177 4.64583 19.1094 4.59375ZM37.0625 9.48438C37.3542 9.48438 37.625 9.45312 37.875 9.39062C38.0833 9.33854 38.2812 9.25521 38.4688 9.14062C38.6667 9.01562 38.7969 8.83333 38.8594 8.59375C39.0677 8.63542 39.2448 8.67188 39.3906 8.70312C39.5365 8.72396 39.6615 8.74479 39.7656 8.76562C39.8802 8.79688 39.9792 8.81771 40.0625 8.82812C40.1458 8.84896 40.2448 8.86979 40.3594 8.89062C40.4635 8.91146 40.5885 8.9375 40.7344 8.96875C40.8906 8.98958 41.0729 9.02083 41.2812 9.0625C41.125 9.04167 40.9635 9.05729 40.7969 9.10938C40.6406 9.16146 40.4896 9.21875 40.3438 9.28125C40.1771 9.35417 40.0208 9.44271 39.875 9.54688C39.7812 9.60938 39.6719 9.70312 39.5469 9.82812C39.4323 9.95312 39.2656 10.0729 39.0469 10.1875C38.8281 10.3021 38.5365 10.401 38.1719 10.4844C37.8177 10.5573 37.3594 10.5833 36.7969 10.5625C36.1198 10.5417 35.5521 10.4219 35.0938 10.2031C34.6354 9.97396 34.2656 9.69792 33.9844 9.375C33.7031 9.04167 33.5 8.68229 33.375 8.29688C33.25 7.91146 33.1823 7.55208 33.1719 7.21875C33.1615 6.88542 33.2604 6.53646 33.4688 6.17188C33.6771 5.80729 33.9688 5.47396 34.3438 5.17188C34.7292 4.86979 35.1927 4.625 35.7344 4.4375C36.276 4.23958 36.8698 4.14062 37.5156 4.14062C37.8906 4.14062 38.2344 4.1875 38.5469 4.28125C38.8698 4.36458 39.1615 4.47917 39.4219 4.625C39.6927 4.77083 39.9271 4.9375 40.125 5.125C40.3229 5.30208 40.4896 5.48438 40.625 5.67188C40.7604 5.86979 40.875 6.07812 40.9688 6.29688C41.0521 6.48438 41.1198 6.69792 41.1719 6.9375C41.224 7.17708 41.2396 7.42188 41.2188 7.67188C40.4271 7.69271 39.7865 7.70833 39.2969 7.71875C38.8177 7.72917 38.4427 7.73438 38.1719 7.73438H37.4688H36.9375C36.75 7.73438 36.5052 7.73958 36.2031 7.75C35.901 7.76042 35.5312 7.77604 35.0938 7.79688C35.1458 8.21354 35.276 8.53646 35.4844 8.76562C35.7031 8.98438 35.9323 9.15104 36.1719 9.26562C36.4427 9.39062 36.7396 9.46354 37.0625 9.48438ZM35.6562 6.67188C35.9896 6.69271 36.2656 6.70833 36.4844 6.71875C36.7135 6.72917 36.901 6.73958 37.0469 6.75C37.2031 6.76042 37.3281 6.76562 37.4219 6.76562H37.8125C38.0729 6.76562 38.5573 6.75 39.2656 6.71875C39.2344 6.26042 39.1354 5.91146 38.9688 5.67188C38.8125 5.43229 38.6458 5.25521 38.4688 5.14062C38.2604 5.01562 38.0312 4.94271 37.7812 4.92188C37.1042 4.93229 36.599 5.07292 36.2656 5.34375C35.9427 5.61458 35.7396 6.05729 35.6562 6.67188ZM41.9219 1.21875C42.5469 1.27083 43.0938 1.30208 43.5625 1.3125C44.0417 1.32292 44.4479 1.32812 44.7812 1.32812C45.1667 1.32812 45.5 1.31771 45.7812 1.29688C46.0729 1.26562 46.4531 1.22396 46.9219 1.17188C47.3177 1.11979 47.8281 1.05208 48.4531 0.96875C49.0781 0.875 49.8385 0.755208 50.7344 0.609375C50.6198 0.786458 50.5208 0.973958 50.4375 1.17188C50.3646 1.35938 50.3021 1.53125 50.25 1.6875C50.1979 1.875 50.151 2.05729 50.1094 2.23438C50.0781 2.43229 50.0417 2.67708 50 2.96875C49.9583 3.21875 49.9062 3.53646 49.8438 3.92188C49.7917 4.29688 49.724 4.74479 49.6406 5.26562C49.3281 4.45312 49.0104 3.82812 48.6875 3.39062C48.375 2.95312 48.0833 2.63021 47.8125 2.42188C47.5 2.18229 47.2031 2.04688 46.9219 2.01562C46.5156 2.01562 46.1823 2.09375 45.9219 2.25C45.6615 2.40625 45.4479 2.60938 45.2812 2.85938C45.125 3.09896 45.0052 3.36458 44.9219 3.65625C44.8385 3.9375 44.7812 4.21354 44.75 4.48438C44.7188 4.74479 44.6979 4.97917 44.6875 5.1875C44.6771 5.38542 44.6667 5.52083 44.6562 5.59375C45.0208 5.57292 45.3281 5.54688 45.5781 5.51562C45.8281 5.48438 46.026 5.45312 46.1719 5.42188C46.349 5.38021 46.4896 5.33854 46.5938 5.29688C46.75 5.21354 46.9062 5.11458 47.0625 5C47.1979 4.89583 47.3385 4.77083 47.4844 4.625C47.6406 4.47917 47.776 4.30208 47.8906 4.09375C47.8281 4.46875 47.7708 4.78125 47.7188 5.03125C47.6771 5.28125 47.6406 5.47917 47.6094 5.625C47.5677 5.80208 47.5417 5.9375 47.5312 6.03125C47.5104 6.125 47.4844 6.25521 47.4531 6.42188C47.4219 6.56771 47.3854 6.75521 47.3438 6.98438C47.3021 7.21354 47.2552 7.5 47.2031 7.84375C47.0781 7.625 46.9479 7.44792 46.8125 7.3125C46.6771 7.16667 46.5521 7.05208 46.4375 6.96875C46.3021 6.875 46.1719 6.80208 46.0469 6.75C45.9115 6.70833 45.7656 6.66667 45.6094 6.625C45.474 6.59375 45.3125 6.5625 45.125 6.53125C44.9479 6.48958 44.7552 6.45312 44.5469 6.42188C44.5677 6.98438 44.599 7.46875 44.6406 7.875C44.6823 8.27083 44.7188 8.60417 44.75 8.875C44.7917 9.1875 44.8333 9.44792 44.875 9.65625C44.9271 9.86458 45.0104 10.0885 45.125 10.3281C45.2188 10.5365 45.349 10.776 45.5156 11.0469C45.6927 11.3073 45.9167 11.5885 46.1875 11.8906C45.9792 11.8385 45.7604 11.8021 45.5312 11.7812C45.3021 11.7604 45.099 11.7448 44.9219 11.7344C44.7031 11.724 44.4948 11.724 44.2969 11.7344C44.0885 11.7448 43.8594 11.7656 43.6094 11.7969C43.401 11.8177 43.1615 11.849 42.8906 11.8906C42.6198 11.9323 42.3333 11.9792 42.0312 12.0312C42.2083 11.8542 42.3542 11.6771 42.4688 11.5C42.5833 11.3229 42.6667 11.1667 42.7188 11.0312C42.7812 10.875 42.8229 10.724 42.8438 10.5781C42.8542 10.4531 42.8594 10.1823 42.8594 9.76562C42.8594 9.33854 42.8542 8.84375 42.8438 8.28125C42.8333 7.70833 42.8177 7.10417 42.7969 6.46875C42.776 5.83333 42.7552 5.23958 42.7344 4.6875C42.7135 4.125 42.6875 3.64583 42.6562 3.25C42.6354 2.85417 42.6094 2.61458 42.5781 2.53125C42.5365 2.42708 42.4896 2.30729 42.4375 2.17188C42.3542 1.95312 42.1823 1.63542 41.9219 1.21875ZM50.1719 4.8125C50.4427 4.86458 50.6771 4.90625 50.875 4.9375C51.0833 4.95833 51.2604 4.97917 51.4062 5C51.5729 5.02083 51.7188 5.03646 51.8438 5.04688C51.9688 5.05729 52.1146 5.06771 52.2812 5.07812C52.5625 5.08854 52.9583 5.08854 53.4688 5.07812C53.1667 5.05729 52.9271 5.13542 52.75 5.3125C52.5833 5.47917 52.4583 5.67188 52.375 5.89062C52.2708 6.15104 52.2135 6.45312 52.2031 6.79688C52.1823 7.25521 52.1927 7.67188 52.2344 8.04688C52.2865 8.41146 52.375 8.72396 52.5 8.98438C52.6354 9.23438 52.8125 9.42188 53.0312 9.54688C53.25 9.66146 53.5312 9.69271 53.875 9.64062C54.2188 9.58854 54.4792 9.46875 54.6562 9.28125C54.8438 9.08333 54.9792 8.84375 55.0625 8.5625C55.1458 8.27083 55.1927 7.94271 55.2031 7.57812C55.224 7.21354 55.2396 6.83333 55.25 6.4375C55.25 6.04167 55.2448 5.76042 55.2344 5.59375C55.2344 5.41667 55.2292 5.30208 55.2188 5.25C55.2083 5.19792 55.1927 5.17708 55.1719 5.1875C55.151 5.1875 55.125 5.16146 55.0938 5.10938C55.0729 5.06771 55.0417 5.02604 55 4.98438C54.9688 4.94271 54.9271 4.89583 54.875 4.84375C54.8229 4.78125 54.7656 4.71875 54.7031 4.65625C54.974 4.66667 55.2135 4.67708 55.4219 4.6875C55.6406 4.6875 55.8229 4.69271 55.9688 4.70312C56.1354 4.71354 56.2812 4.72396 56.4062 4.73438C56.5208 4.74479 56.6719 4.76042 56.8594 4.78125C57.0156 4.80208 57.2188 4.82292 57.4688 4.84375C57.7188 4.86458 58.0156 4.89583 58.3594 4.9375C58.1198 4.98958 57.9271 5.06771 57.7812 5.17188C57.6354 5.27604 57.5208 5.38021 57.4375 5.48438C57.3438 5.59896 57.276 5.72396 57.2344 5.85938C57.2031 6.03646 57.2031 6.30729 57.2344 6.67188C57.2552 6.99479 57.3073 7.4375 57.3906 8C57.474 8.5625 57.6042 9.30208 57.7812 10.2188L56.5469 10.9531L56.2969 8.875C55.9948 9.38542 55.6719 9.78125 55.3281 10.0625C54.9948 10.3333 54.6823 10.5312 54.3906 10.6562C54.0469 10.8021 53.7135 10.8854 53.3906 10.9062C52.9635 10.9062 52.5938 10.8802 52.2812 10.8281C51.9792 10.7656 51.7188 10.6875 51.5 10.5938C51.2812 10.5 51.1042 10.3958 50.9688 10.2812C50.8438 10.1562 50.75 10.0312 50.6875 9.90625C50.5417 9.64583 50.4635 9.3125 50.4531 8.90625C50.4427 8.48958 50.4583 8.07812 50.5 7.67188C50.5417 7.25521 50.5885 6.875 50.6406 6.53125C50.6927 6.1875 50.7083 5.95312 50.6875 5.82812C50.6667 5.73438 50.6354 5.63021 50.5938 5.51562C50.5521 5.42188 50.5 5.31771 50.4375 5.20312C50.375 5.07812 50.2865 4.94792 50.1719 4.8125ZM58.4375 4.51562C58.6354 4.52604 58.8125 4.53125 58.9688 4.53125C59.1354 4.52083 59.276 4.51042 59.3906 4.5C59.526 4.48958 59.6458 4.47917 59.75 4.46875C59.9062 4.44792 60.0677 4.42188 60.2344 4.39062C60.3802 4.36979 60.5312 4.34375 60.6875 4.3125C60.8542 4.27083 61.0156 4.22396 61.1719 4.17188C61.1094 4.32812 61.0573 4.46354 61.0156 4.57812C60.974 4.69271 60.9427 4.79167 60.9219 4.875C60.8906 4.96875 60.875 5.04688 60.875 5.10938C60.8646 5.18229 60.8594 5.27083 60.8594 5.375C60.849 5.55208 60.849 5.83854 60.8594 6.23438C61.401 5.76562 61.8542 5.40104 62.2188 5.14062C62.5938 4.88021 62.8906 4.67708 63.1094 4.53125C63.3698 4.36458 63.5729 4.25521 63.7188 4.20312C64.1042 4.14062 64.4427 4.22917 64.7344 4.46875C64.8594 4.57292 64.9792 4.71354 65.0938 4.89062C65.2083 5.05729 65.3073 5.28125 65.3906 5.5625C65.474 5.84375 65.5365 6.18229 65.5781 6.57812C65.6198 6.96354 65.625 7.42708 65.5938 7.96875C65.375 7.98958 65.1771 8.01042 65 8.03125C64.8333 8.05208 64.6927 8.06771 64.5781 8.07812C64.4427 8.09896 64.3177 8.10938 64.2031 8.10938L63.7812 8.15625C63.6354 8.17708 63.4531 8.19792 63.2344 8.21875C63.026 8.22917 62.7708 8.25 62.4688 8.28125C62.9062 7.92708 63.1875 7.61979 63.3125 7.35938C63.4479 7.08854 63.5052 6.86458 63.4844 6.6875C63.4635 6.48958 63.3698 6.31771 63.2031 6.17188C63.0052 6.05729 62.7917 6.01562 62.5625 6.04688C62.3646 6.06771 62.1354 6.15625 61.875 6.3125C61.6146 6.46875 61.3385 6.76042 61.0469 7.1875C61.0677 7.85417 61.0885 8.40625 61.1094 8.84375C61.1406 9.28125 61.1667 9.63542 61.1875 9.90625C61.2188 10.2188 61.2448 10.4635 61.2656 10.6406C61.2969 10.7969 61.3594 10.9635 61.4531 11.1406C61.526 11.2865 61.6302 11.4479 61.7656 11.625C61.901 11.8021 62.0781 11.9792 62.2969 12.1562C61.8385 12.1354 61.4635 12.1354 61.1719 12.1562C60.9948 12.1667 60.8385 12.1771 60.7031 12.1875C60.5573 12.2083 60.401 12.2292 60.2344 12.25C60.0885 12.2708 59.9167 12.2917 59.7188 12.3125C59.5312 12.3438 59.3229 12.375 59.0938 12.4062C59.1771 12.2917 59.2448 12.1562 59.2969 12C59.349 11.8542 59.3906 11.7135 59.4219 11.5781C59.4635 11.4219 59.4948 11.2604 59.5156 11.0938C59.526 10.9479 59.5312 10.7292 59.5312 10.4375C59.5417 10.1458 59.5365 9.81771 59.5156 9.45312C59.5052 9.07812 59.4896 8.69271 59.4688 8.29688C59.4479 7.89062 59.4219 7.51042 59.3906 7.15625C59.3594 6.80208 59.3229 6.49479 59.2812 6.23438C59.25 5.96354 59.2135 5.77604 59.1719 5.67188C59.1198 5.54688 59.0573 5.42188 58.9844 5.29688C58.9219 5.18229 58.8438 5.0625 58.75 4.9375C58.6562 4.80208 58.5521 4.66146 58.4375 4.51562ZM66.7344 10.2812C66.8073 9.9375 66.8594 9.63542 66.8906 9.375C66.9323 9.10417 66.9635 8.88021 66.9844 8.70312C67.0052 8.49479 67.0156 8.31771 67.0156 8.17188C67.0052 7.99479 66.9948 7.78646 66.9844 7.54688C66.9844 7.29688 66.974 7.05208 66.9531 6.8125C66.9427 6.5625 66.9271 6.34375 66.9062 6.15625C66.8854 5.95833 66.8594 5.81771 66.8281 5.73438C66.7865 5.65104 66.7292 5.5625 66.6562 5.46875C66.5104 5.29167 66.2969 5.11979 66.0156 4.95312C66.2552 4.90104 66.4583 4.85938 66.625 4.82812C66.8021 4.78646 66.9479 4.75 67.0625 4.71875C67.1875 4.67708 67.2969 4.64062 67.3906 4.60938C67.474 4.57812 67.5729 4.54688 67.6875 4.51562C67.7812 4.49479 67.8958 4.46875 68.0312 4.4375C68.1667 4.40625 68.3229 4.36979 68.5 4.32812L68.4531 5.75C68.7865 5.35417 69.125 5.05729 69.4688 4.85938C69.8125 4.66146 70.1354 4.52083 70.4375 4.4375C70.7812 4.33333 71.1198 4.28125 71.4531 4.28125C71.8698 4.30208 72.2552 4.36979 72.6094 4.48438C72.974 4.59896 73.2865 4.73438 73.5469 4.89062C73.8177 5.03646 74.0365 5.19271 74.2031 5.35938C74.3698 5.52604 74.4688 5.67188 74.5 5.79688C74.625 6.20312 74.6562 6.57812 74.5938 6.92188C74.5312 7.25521 74.4479 7.58333 74.3438 7.90625C74.25 8.21875 74.1667 8.53125 74.0938 8.84375C74.0312 9.15625 74.0573 9.49479 74.1719 9.85938C74.2135 9.95312 74.2552 10.0469 74.2969 10.1406C74.3385 10.224 74.3906 10.3073 74.4531 10.3906C74.5156 10.474 74.5885 10.5417 74.6719 10.5938C74.5573 10.5833 74.4427 10.5781 74.3281 10.5781C74.2135 10.5677 74.1094 10.5573 74.0156 10.5469C73.901 10.5365 73.7969 10.526 73.7031 10.5156C73.599 10.5052 73.4583 10.5 73.2812 10.5C72.9792 10.5 72.5104 10.5156 71.875 10.5469C71.9688 10.3281 72.0417 10.1458 72.0938 10C72.1562 9.84375 72.2083 9.71875 72.25 9.625C72.2917 9.51042 72.3229 9.42188 72.3438 9.35938C72.4688 9.05729 72.5417 8.71354 72.5625 8.32812C72.5938 7.94271 72.5677 7.55208 72.4844 7.15625C72.4531 7.02083 72.401 6.85938 72.3281 6.67188C72.2552 6.48438 72.1562 6.30208 72.0312 6.125C71.9167 5.94792 71.776 5.79688 71.6094 5.67188C71.4531 5.54688 71.2708 5.47396 71.0625 5.45312C70.8542 5.43229 70.6198 5.48438 70.3594 5.60938C70.1094 5.73438 69.8385 5.96354 69.5469 6.29688C69.3281 6.57812 69.1562 6.92188 69.0312 7.32812C68.9167 7.67188 68.8385 8.10417 68.7969 8.625C68.7552 9.13542 68.8177 9.73438 68.9844 10.4219C68.8385 10.401 68.7031 10.3906 68.5781 10.3906C68.4531 10.3802 68.349 10.3698 68.2656 10.3594C68.1615 10.349 68.0677 10.3385 67.9844 10.3281C67.8906 10.3281 67.7865 10.3229 67.6719 10.3125C67.5677 10.3125 67.4375 10.3125 67.2812 10.3125C67.125 10.3021 66.9427 10.2917 66.7344 10.2812ZM75.625 5.01562L78.5 5.04688C78.3333 5.68229 78.2083 6.22396 78.125 6.67188C78.0521 7.11979 78.0052 7.49479 77.9844 7.79688C77.9427 8.14062 77.9323 8.43229 77.9531 8.67188C77.9844 8.89062 78.0365 9.125 78.1094 9.375C78.1719 9.58333 78.2656 9.82292 78.3906 10.0938C78.5156 10.3646 78.6823 10.6354 78.8906 10.9062C78.7656 10.8646 78.6302 10.8333 78.4844 10.8125C78.3385 10.7917 78.2031 10.776 78.0781 10.7656C77.9323 10.7552 77.7865 10.7552 77.6406 10.7656C77.4948 10.776 77.3333 10.7917 77.1562 10.8125C77.0104 10.8333 76.8333 10.8594 76.625 10.8906C76.4167 10.9219 76.1979 10.9635 75.9688 11.0156C76.125 10.5469 76.2448 10.1406 76.3281 9.79688C76.4219 9.45312 76.4896 9.16667 76.5312 8.9375C76.5729 8.66667 76.599 8.44792 76.6094 8.28125C76.6094 8.07292 76.6094 7.83854 76.6094 7.57812C76.6094 7.30729 76.6094 7.04688 76.6094 6.79688C76.6094 6.54688 76.6042 6.32812 76.5938 6.14062C76.5833 5.94271 76.5625 5.81771 76.5312 5.76562L76.375 5.60938C76.3125 5.55729 76.2188 5.48438 76.0938 5.39062C75.9792 5.28646 75.8229 5.16146 75.625 5.01562ZM76.7344 2.60938C76.9531 2.49479 77.1719 2.46354 77.3906 2.51562C77.6198 2.56771 77.7969 2.66667 77.9219 2.8125C78.0469 2.95833 78.0885 3.13021 78.0469 3.32812C78.0156 3.52604 77.849 3.71875 77.5469 3.90625C77.2448 4.08333 76.9792 4.14583 76.75 4.09375C76.5208 4.04167 76.3594 3.93229 76.2656 3.76562C76.1719 3.59896 76.1562 3.40625 76.2188 3.1875C76.2812 2.95833 76.4531 2.76562 76.7344 2.60938Z" fill="#F54E19"/>
</svg>
